<svg xmlns="http://www.w3.org/2000/svg" width="70.15" height="93.154" viewBox="0 0 70.15 93.154">
  <g id="Group_6" data-name="Group 6" transform="translate(-180.508 0)">
    <circle id="Ellipse_2" data-name="Ellipse 2" cx="10.075" cy="10.075" r="10.075" transform="translate(205.428 6.148)" fill="#a0616a"/>
    <path id="Path_3" data-name="Path 3" d="M573.474,260.562s1.9,14.31-1.022,15.916,17.377,1.752,17.377,1.752-4.527-12.412-2.482-16.208Z" transform="translate(-365.491 -239.301)" fill="#a0616a"/>
    <path id="Path_4" data-name="Path 4" d="M519.544,342.581l-1.688,7.687-3.569,16.262-.107.891-1.232,10.31-.819,6.849-.549,4.6c-3.34,1.717-5.761,2.9-5.761,2.9s-.208-1.044-.544-2.38a51.087,51.087,0,0,1-10.358,2.1c1.339,1.492,1.954,2.894,1.119,3.928-2.518,3.118-12.915-3.414-16.551-5.85a9.843,9.843,0,0,0-.1,1.762l-2.783-2.14.275-4.924.464-8.332.584-10.449a10.973,10.973,0,0,1-.462-1.374c-.852-3.031-1.887-9.083-2.68-14.158-.638-4.084-1.118-7.536-1.219-8.27l-.021-.145,15.4-6.807c1.095,2.539,6.207,3.3,6.207,3.3a17.145,17.145,0,0,0,7.555-2.525Z" transform="translate(-280.386 -303.579)" fill="#d0cde1"/>
    <path id="Path_5" data-name="Path 5" d="M601.3,700.479s-.652.223-1.713.54a51.086,51.086,0,0,1-10.358,2.1c-3.165.2-5.84-.285-6.329-2.35a2.182,2.182,0,0,1,.736-2.218c1.935-1.794,6.988-2.436,11-2.657,1.132-.062,2.178-.09,3.05-.1,1.48-.019,2.45.011,2.45.011l.023.09Z" transform="translate(-374.697 -614.895)" fill="#a0616a"/>
    <path id="Path_6" data-name="Path 6" d="M558.633,112.081l-1.884-.754s3.939-4.337,9.419-3.959l-1.541-1.7s3.768-1.508,7.193,2.451A33.432,33.432,0,0,1,577,115.406h2.017l-.842,1.854,2.947,1.854-3.025-.333a10.358,10.358,0,0,1,.082,3.075,3.979,3.979,0,0,1-1.457,2.6h0s-2.336-4.836-2.336-5.59v1.885s-1.884-1.7-1.884-2.828l-1.028,1.32-.514-2.074-6.337,2.074,1.028-1.7-3.939.566,1.541-2.074s-4.453,2.451-4.624,4.525a9.959,9.959,0,0,1-1.475,4.039S553.667,114.91,558.633,112.081Z" transform="translate(-351.512 -105.389)" fill="#2f2e41"/>
    <path id="Path_7" data-name="Path 7" d="M714.441,425.382a35.509,35.509,0,0,1-6.652,4.6c-1.147.674-2.368,1.369-3.613,2.059-2.972,1.648-6.083,3.281-8.651,4.6-3.34,1.717-5.761,2.9-5.761,2.9s-.208-1.044-.544-2.38a19.737,19.737,0,0,0-1.832-5.123c-.025-.036-.049-.069-.074-.1-.206-.27-.412-.427-.617-.427l10.2-6.32,4.406-2.732-3.175-7.578-3.982-9.506,2.4-7.647,2.416-7.687h4.527s1.5,3.272,3.416,7.834c.286.682.582,1.393.884,2.128C711.732,409.6,716.648,422.991,714.441,425.382Z" transform="translate(-464.331 -351.043)" fill="#d0cde1"/>
    <path id="Path_8" data-name="Path 8" d="M525.472,698.882c-2.518,3.118-12.915-3.414-16.551-5.85-.792-.53-1.263-.866-1.263-.866l3.327-4.437,1.054-1.4s.943.5,2.336,1.314l.154.09c1.2.706,2.71,1.628,4.232,2.657a31.939,31.939,0,0,1,5.593,4.568C525.691,696.446,526.306,697.848,525.472,698.882Z" transform="translate(-309.822 -606.728)" fill="#a0616a"/>
    <path id="Path_9" data-name="Path 9" d="M405.238,428.277a6.548,6.548,0,0,0-1.11.09c-3.15.541-4.079,3.392-4.343,5.3a9.838,9.838,0,0,0-.1,1.762l-2.783-2.14-1.014-.78a18.479,18.479,0,0,1-6.5-4.145,32.68,32.68,0,0,1-4.378-5.191,45.785,45.785,0,0,1-3.387-5.809,4.273,4.273,0,0,1-.059-3.624l3.446-7.68,5.037-11.224q.055-.4.122-.784c1-5.727,3.675-8.27,3.675-8.27h2.044l1.367,8.27,1.7,10.275-1.191,3.883-2.751,8.968,2.629,2.855Z" transform="translate(-200.686 -347.367)" fill="#d0cde1"/>
    <path id="Path_10" data-name="Path 10" d="M544.479,489.816l1.748,2.039c.649-.124,1.327-.269,2.026-.433l-.5-1.606,1.227,1.432a165.775,165.775,0,0,0,16.569-5.357s-9.9.726-17.292-.889a7.034,7.034,0,0,0-7.978,3.974c-.78,1.783-.658,3.327,2.109,3.327a18.264,18.264,0,0,0,2.789-.262Z" transform="translate(-337.614 -432.845)" fill="#6c63ff"/>
    <path id="Path_11" data-name="Path 11" d="M455.791,751.26v.832a1.827,1.827,0,0,1-.125.667,1.876,1.876,0,0,1-.133.274,1.841,1.841,0,0,1-1.582.9H392.767a1.841,1.841,0,0,1-1.582-.9,1.876,1.876,0,0,1-.133-.274,1.828,1.828,0,0,1-.125-.667v-.832a1.84,1.84,0,0,1,1.84-1.84h3.527v-.388a.077.077,0,0,1,.077-.077h1.84a.076.076,0,0,1,.077.077v.388h1.15v-.388a.077.077,0,0,1,.077-.077h1.84a.077.077,0,0,1,.077.077v.388h1.151v-.388a.077.077,0,0,1,.077-.077h1.84a.077.077,0,0,1,.077.077v.388h1.15v-.388a.077.077,0,0,1,.077-.077h1.84a.077.077,0,0,1,.077.077v.388h1.15v-.388a.077.077,0,0,1,.077-.077h1.84a.077.077,0,0,1,.077.077v.388h1.151v-.388a.077.077,0,0,1,.077-.077h1.84a.077.077,0,0,1,.077.077v.388h1.15v-.388a.077.077,0,0,1,.077-.077h14.414a.077.077,0,0,1,.077.077v.388h1.151v-.388a.077.077,0,0,1,.077-.077h1.84a.077.077,0,0,1,.077.077v.388h1.15v-.388a.077.077,0,0,1,.077-.077h1.84a.077.077,0,0,1,.077.077v.388h1.15v-.388a.077.077,0,0,1,.077-.077h1.84a.077.077,0,0,1,.077.077v.388H440.3v-.388a.077.077,0,0,1,.077-.077h1.84a.076.076,0,0,1,.075.077v.388h1.151v-.388a.076.076,0,0,1,.077-.077h1.84a.077.077,0,0,1,.077.077v.388h1.15v-.388a.077.077,0,0,1,.077-.077h1.84a.077.077,0,0,1,.077.077v.388h5.367A1.84,1.84,0,0,1,455.791,751.26Z" transform="translate(-209.086 -660.777)" fill="#3f3d56"/>
    <path id="Path_12" data-name="Path 12" d="M465.666,507.184H442.861v-.47H432.52v.47h-22.9a1.543,1.543,0,0,0-1.543,1.543v31.227a1.543,1.543,0,0,0,1.543,1.543h56.045a1.543,1.543,0,0,0,1.543-1.543V508.727a1.543,1.543,0,0,0-1.543-1.543Z" transform="translate(-223.887 -451.727)" fill="#3f3d56"/>
    <circle id="Ellipse_3" data-name="Ellipse 3" cx="3.425" cy="3.425" r="3.425" transform="translate(210.376 62.934)" fill="none" stroke="#d0cde1" stroke-miterlimit="10" stroke-width="2"/>
    <circle id="Ellipse_4" data-name="Ellipse 4" cx="3.425" cy="3.425" r="3.425" transform="translate(209.28 64.167)" fill="#d0cde1"/>
  </g>
</svg>
